<?xml version="1.0" encoding="UTF-8" standalone="no"?> <svg xmlns="http://www.w3.org/2000/svg" xmlns:vectornator="http://vectornator.io" xmlns:xlink="http://www.w3.org/1999/xlink" height="100%" stroke-miterlimit="10" style="fill-rule:nonzero;clip-rule:evenodd;stroke-linecap:round;stroke-linejoin:round;" version="1.1" viewBox="0 0 92 104" width="100%" xml:space="preserve"> <defs></defs> <g id="V01" vectornator:layerName="V01"> <g opacity="1"> <g opacity="1"> <path d="M34.9439 48.8768L34.9439 48.8768C33.6784 48.6362 32.666 48.1549 31.9067 47.1924C31.9067 47.1924 31.9067 47.1924 31.9067 46.9518L29.1226 46.9518L27.604 46.9518C27.3509 46.9518 27.0978 46.9518 26.8447 46.9518C25.5792 46.7112 24.8199 45.7487 24.8199 44.5456L24.5668 37.3269L24.5668 37.3269C23.3013 35.6425 22.2889 33.7175 21.0234 32.0331L21.0234 32.0331C19.7579 32.0331 18.4924 32.9956 18.4924 34.4394L18.4924 34.4394L18.7455 37.0862L18.4924 44.7862C18.4924 45.9893 18.9986 47.1924 19.5048 48.1549C20.5172 50.0799 22.542 51.7643 24.8199 52.4862C25.8323 52.7268 26.5916 52.9674 27.604 52.9674L27.8571 52.9674L29.1226 52.9674L33.1722 52.9674C35.197 52.9674 36.4625 50.5612 34.9439 48.8768Z" fill="#768293" fill-rule="evenodd" opacity="1" stroke="none"></path> <path d="M74.4275 34.1836C74.4275 32.75 73.162 32.0331 71.8965 32.0331L71.8965 32.0331C70.8841 33.7057 69.6186 35.3784 68.6062 36.812L68.8593 43.0246C68.8593 43.9804 68.3531 44.6972 68.1 45.1751C67.8469 45.4141 67.0876 46.1309 65.8221 46.1309L61.0132 46.1309C60.2539 46.1309 59.4946 46.3699 58.9884 47.0867C58.7353 47.3256 58.7353 47.5646 58.4822 47.5646L58.2291 47.8035C59.4946 50.6709 58.7353 48.9983 60.2539 51.8656L66.0752 51.6267C68.6062 51.6267 70.8841 50.6709 72.4027 48.9983C74.1744 47.3256 74.9337 45.1751 74.6806 42.7857L74.6806 42.7857L74.4275 34.1836L74.4275 34.1836Z" fill="#768293" fill-rule="evenodd" opacity="1" stroke="none"></path> <path d="M73.162 11.0988C72.9089 11.0988 72.9089 11.0988 72.6558 11.0988C70.1248 11.616 67.5938 11.8746 65.0628 12.1332L65.0628 12.1332L65.0628 18.3393C65.0628 19.6322 65.0628 20.9251 65.0628 22.2181C65.0628 22.4767 65.0628 22.7352 65.0628 22.9938L65.0628 23.7696C65.0628 24.5454 65.0628 25.3211 64.8097 26.0969C64.8097 26.3555 64.8097 26.614 64.8097 26.8726L64.8097 26.8726L64.5566 28.6827C64.5566 28.9413 64.5566 29.1999 64.3035 29.4585C64.3035 29.7171 64.0504 30.2343 64.0504 30.4928L64.0504 31.7858C64.0504 32.303 63.7973 32.5615 63.7973 33.0787L63.7973 33.3373C63.7973 33.5959 63.5442 34.1131 63.5442 34.3717L63.2911 35.406L63.2911 35.406C63.2911 35.6646 63.038 36.1818 63.038 36.4403C63.038 36.1818 63.2911 36.1818 63.2911 35.9232C63.2911 35.6646 63.5442 35.6646 63.5442 35.406C65.3159 32.8201 66.8345 30.2343 68.6062 27.3898C68.6062 27.1312 68.8593 27.1312 68.8593 26.8726C71.3903 22.4767 73.6682 18.3393 75.1868 15.2362C76.4523 13.1675 75.1868 11.0988 73.162 11.0988Z" fill="#768293" fill-rule="evenodd" opacity="1" stroke="none"></path> <path d="M24.0606 27.3481C24.8199 28.5981 25.5792 29.848 26.3385 31.098C27.0978 32.3479 28.1102 33.8479 28.8695 35.0978C29.1226 35.3478 29.1226 35.5978 29.3757 35.8478C29.6288 35.8478 29.8819 36.0978 29.8819 36.3478C30.8943 37.8477 32.1598 39.3476 33.1722 40.8476C32.9191 39.8476 32.4129 39.0976 32.1598 38.0977C31.1474 34.8478 30.3881 31.8479 29.8819 29.0981C29.6288 27.5981 29.3757 26.0982 29.1226 24.5983C29.1226 24.3483 29.1226 24.3483 29.1226 24.0983C28.8695 21.5984 28.6164 19.0985 28.6164 16.5986L28.6164 16.5986L28.6164 12.8488L28.6164 12.8488C28.1102 12.8488 27.604 12.5988 27.3509 12.5988C24.8199 12.3488 20.7703 11.5988 17.9862 11.0988L17.7331 11.0988C16.7207 11.0988 15.9614 12.0988 16.4676 13.0988C18.2393 16.5986 20.7703 21.5984 23.8075 26.8482C24.0606 27.0982 24.0606 27.3481 24.0606 27.3481Z" fill="#768293" fill-rule="evenodd" opacity="1" stroke="none"></path> <path d="M33.1866 16.4557L33.1866 16.4557C33.1866 20.2472 33.6928 24.0387 34.4521 28.0829C34.9583 30.8634 35.7176 33.6438 36.73 36.4242C37.7424 39.2047 38.7548 41.9851 39.7672 44.7656C39.7672 45.0183 40.0203 45.0183 40.0203 45.2711C41.2858 48.0515 42.5513 50.5792 43.8168 53.3596C43.8168 53.3596 43.8168 53.6124 44.0699 53.6124L44.0699 53.6124L44.0699 53.6124L44.0699 53.6124C44.5761 54.3707 45.3354 55.129 46.3478 55.129C46.6009 55.129 46.854 55.129 47.1071 54.8762C47.6133 54.6235 47.8664 54.6235 48.3726 54.1179C48.6257 53.8652 48.8788 53.6124 48.8788 53.3596L48.8788 53.3596L48.8788 53.1069L51.4098 49.3154C51.4098 49.3154 51.4098 49.0626 51.6629 49.0626L52.6753 47.0405C52.9284 46.7877 52.9284 46.5349 53.1815 46.2822L53.1815 46.2822L53.4346 45.5239C53.6877 45.2711 53.6877 45.0183 53.9408 44.7656L54.7001 42.9962C54.7001 42.7434 54.9532 42.4907 54.9532 42.2379C55.2063 41.9851 55.2063 41.7324 55.4594 41.2268L55.7125 40.4685C55.7125 40.2158 55.9656 40.2158 55.9656 39.963C55.9656 39.963 55.9656 39.7102 56.2187 39.7102C56.4718 39.4575 56.4718 38.9519 56.7249 38.6991L56.978 37.9408C56.978 37.6881 57.2311 37.4353 57.2311 37.1825C57.2311 36.9298 57.4842 36.4242 57.4842 36.1715L57.7373 35.1604C57.7373 34.9076 57.9904 34.6549 57.9904 34.4021C57.9904 34.1493 58.2435 33.6438 58.2435 33.1383L58.4966 32.1272C58.4966 31.8744 58.7497 31.6217 58.7497 31.3689C58.7497 30.8634 59.0028 30.6106 59.0028 30.1051L59.2559 29.094C59.2559 28.8412 59.2559 28.5885 59.509 28.3357C59.509 28.0829 59.509 27.8302 59.509 27.5774L60.2683 26.3136C60.2683 26.0608 60.2683 25.808 60.2683 25.5553C60.2683 24.797 60.5214 24.2914 60.5214 23.5331L60.5214 22.7748C60.5214 22.5221 60.5214 22.5221 60.5214 22.2693C60.5214 21.2582 60.5214 19.9944 60.5214 18.9833L60.5214 12.9169L60.5214 12.9169C60.5214 12.6642 60.2683 12.4114 60.2683 12.4114C60.2683 12.4114 60.0152 12.1586 59.7621 12.1586L59.7621 12.1586L59.509 12.1586C55.4594 12.4114 51.4098 12.6642 47.3602 12.6642C43.0575 12.6642 38.7548 12.4114 34.4521 12.1586C34.199 12.1586 34.199 12.1586 33.9459 12.1586L33.9459 12.1586L33.9459 12.1586C33.6928 12.1586 33.6928 12.1586 33.4397 12.4114C33.4397 12.4114 33.1866 12.6642 33.1866 12.9169L33.1866 14.9391L33.1866 16.4557Z" fill="#768293" fill-rule="evenodd" opacity="1" stroke="none"></path> <path d="M61.0132 65.0243C57.976 63.5133 54.1795 61.4985 49.6237 59.4838C49.1175 59.232 48.8644 58.9801 48.3582 58.9801C48.1051 58.7283 47.852 58.7283 47.5989 58.4764C47.5989 58.4764 47.5989 58.4764 47.3458 58.4764L47.3458 58.4764L47.0927 58.4764L46.8396 58.4764L46.8396 58.4764C46.5865 58.4764 46.5865 58.4764 46.5865 58.4764C46.3334 58.4764 46.3334 58.4764 46.3334 58.4764C45.8272 58.7283 45.321 58.9801 44.8148 59.232L44.8148 59.232C44.3086 59.4838 43.5493 59.7356 43.0431 59.9875C40.0059 61.4985 36.7156 63.0096 33.4253 64.5206C32.4129 65.0243 32.1598 65.528 32.4129 66.0317C32.666 66.7872 33.9315 67.2909 35.9563 67.2909L35.9563 67.2909L59.2415 67.2909C60.7601 67.2909 61.7725 66.7872 62.0256 66.2835C61.7725 65.7798 61.5194 65.2761 61.0132 65.0243Z" fill="#768293" fill-rule="evenodd" opacity="1" stroke="none"></path> </g> </g> <path d="M6.98402 82.8114L6.98402 82.8583C7.08563 82.9013 7.20287 83.0068 7.32792 83.1709C7.45297 83.3272 7.54677 83.4914 7.60929 83.6555L9.00052 86.7662L6.29622 86.7662L5.06131 83.4366L4.70178 83.4366C4.73305 83.6867 4.73305 83.9486 4.70178 84.2182L4.34225 86.7662L1.82554 86.7662L2.93539 78.8096L5.45211 78.8096L5.13947 81.0137C5.10821 81.3068 5.04959 81.5765 4.96752 81.8266L5.34269 81.8266L7.28103 78.8096L10.0479 78.8096L7.82814 82.1236C7.61711 82.4479 7.33574 82.6785 6.98402 82.8114Z" fill="#a0a6b1" fill-rule="evenodd" opacity="1" stroke="none"></path> <path d="M12.8826 78.8249L12.0698 84.3429C12.058 84.5227 12.0776 84.6399 12.1323 84.7025C12.1948 84.765 12.312 84.7963 12.4918 84.7963L15.118 84.7963L15.0711 86.6721C14.2973 86.7776 13.0272 86.8284 11.2569 86.8284C10.6707 86.8284 10.2135 86.6564 9.88131 86.3125C9.55695 85.9608 9.4358 85.5114 9.52178 84.9682L10.3659 78.8249L12.8826 78.8249Z" fill="#a0a6b1" fill-rule="evenodd" opacity="1" stroke="none"></path> <path d="M20.5725 85.078L18.4154 85.078L17.7901 86.7662L15.1952 86.7662L18.259 79.4036C18.4154 79.0089 18.7045 78.8096 19.1344 78.8096L21.401 78.8096C21.5964 78.8096 21.7762 78.88 21.9325 79.0128C22.0888 79.1496 22.1748 79.3099 22.1982 79.4974L23.2143 86.7662L20.7132 86.7662L20.5725 85.078ZM20.4475 83.2647L20.3068 81.5452C20.2834 81.3381 20.2794 81.0411 20.2912 80.6542L19.9629 80.6542C19.9082 80.9668 19.8378 81.256 19.7441 81.5139L19.0875 83.2647L20.4475 83.2647Z" fill="#a0a6b1" fill-rule="evenodd" opacity="1" stroke="none"></path> <path d="M23.7044 86.7662L24.8299 78.8096C25.8069 78.7276 26.8855 78.6846 28.0657 78.6846C28.9606 78.6846 29.664 78.8057 30.176 79.0441C30.6957 79.2864 31.0591 79.7163 31.2702 80.3415C31.4773 80.959 31.5047 81.8031 31.3483 82.8739C31.2311 83.6985 31.0865 84.3589 30.9106 84.8591C30.7309 85.3515 30.4808 85.7501 30.1603 86.0628C29.836 86.3754 29.4491 86.5904 29.0036 86.7037C28.5542 86.817 27.9797 86.8756 27.2841 86.8756C26.0726 86.8756 24.8807 86.8366 23.7044 86.7662ZM26.4556 85.0623L27.2528 85.078C27.6671 85.078 27.9875 84.9178 28.2063 84.5934C28.4252 84.2729 28.5971 83.6359 28.7222 82.6863C28.8473 81.8031 28.8629 81.2169 28.7691 80.9356C28.6831 80.6464 28.4252 80.4979 27.9875 80.4979L27.0809 80.4979L26.4556 85.0623Z" fill="#a0a6b1" fill-rule="evenodd" opacity="1" stroke="none"></path> <path d="M34.28 86.7662L31.7945 86.7662L32.9044 78.8096L35.4055 78.8096L34.28 86.7662Z" fill="#a0a6b1" fill-rule="evenodd" opacity="1" stroke="none"></path> <path d="M39.8548 78.6377C40.3941 78.6377 40.8591 78.6807 41.246 78.7627C41.629 78.8487 41.9729 78.9894 42.2777 79.1848C42.5786 79.3841 42.7975 79.6459 42.9342 79.9664C43.0788 80.2907 43.1765 80.6933 43.2312 81.17C43.282 81.6507 43.2547 82.2174 43.1531 82.8739C43.0476 83.6985 42.8912 84.3745 42.6841 84.906C42.4848 85.4297 42.2191 85.84 41.8869 86.1409C41.5508 86.434 41.16 86.6372 40.7145 86.7506C40.2768 86.8639 39.7336 86.9225 39.0888 86.9225C38.1392 86.9225 37.4084 86.7975 36.9004 86.5474C36.4002 86.2973 36.0563 85.8674 35.8687 85.2499C35.6889 84.6364 35.6811 83.7805 35.8374 82.6863C35.9507 81.8735 36.1031 81.213 36.2907 80.7011C36.4861 80.1813 36.7519 79.771 37.0879 79.4662C37.4201 79.1535 37.7992 78.9425 38.2291 78.8253C38.6668 78.7002 39.2061 78.6377 39.8548 78.6377ZM40.5738 80.9199C40.4879 80.6386 40.2378 80.4979 39.8235 80.4979C39.4171 80.4979 39.124 80.6503 38.9481 80.9512C38.7801 81.2443 38.6199 81.8852 38.4635 82.8739C38.3268 83.7923 38.2994 84.3902 38.3854 84.6715C38.4675 84.9451 38.7176 85.078 39.1357 85.078C39.5734 85.078 39.8743 84.9334 40.0424 84.6403C40.2065 84.3394 40.3706 83.6867 40.5269 82.6863C40.652 81.7797 40.6676 81.1935 40.5738 80.9199Z" fill="#a0a6b1" fill-rule="evenodd" opacity="1" stroke="none"></path> <path d="M51.9154 78.8096L50.8993 85.9534C50.868 86.2347 50.7782 86.4458 50.6336 86.5786C50.4851 86.7037 50.274 86.7662 49.9927 86.7662L49.1642 86.7662C48.9219 86.7662 48.746 86.7115 48.6327 86.5943C48.5272 86.4809 48.406 86.2816 48.2732 86.0003L46.9132 83.2647C46.7647 82.9755 46.6318 82.5378 46.5068 81.9516L46.4286 81.9516C46.4482 82.5065 46.4286 82.995 46.3661 83.421L45.8659 86.7662L43.568 86.7662L44.5684 79.6225C44.6075 79.3411 44.7013 79.1379 44.8498 79.0128C44.9944 78.88 45.2093 78.8096 45.4907 78.8096L46.3192 78.8096C46.4443 78.8096 46.5459 78.8253 46.6318 78.8565C46.7256 78.8878 46.8038 78.9503 46.8663 79.0441C46.9367 79.1301 46.9914 79.2004 47.0226 79.263C47.0617 79.3177 47.1203 79.4193 47.1946 79.5756L48.5233 82.1705C48.7304 82.5886 48.8906 83.0458 49.0079 83.5461L49.1017 83.5461C49.0704 83.0888 49.0782 82.6394 49.1329 82.2017L49.6175 78.8096L51.9154 78.8096Z" fill="#a0a6b1" fill-rule="evenodd" opacity="1" stroke="none"></path> <path d="M54.4907 86.7662L52.0053 86.7662L53.1151 78.8096L55.6162 78.8096L54.4907 86.7662Z" fill="#a0a6b1" fill-rule="evenodd" opacity="1" stroke="none"></path> <path d="M61.8622 84.7028L61.956 86.5317C61.1627 86.7818 60.2443 86.9069 59.2048 86.9069C57.8605 86.9069 56.9421 86.5943 56.4536 85.969C55.9729 85.3437 55.8361 84.2495 56.0472 82.6863C56.1605 81.8735 56.3051 81.2169 56.4849 80.7167C56.6724 80.2087 56.9265 79.7944 57.2508 79.4818C57.5713 79.1692 57.9542 78.9581 58.3919 78.8409C58.8374 78.7276 59.408 78.6689 60.0958 78.6689C61.0728 78.6689 61.9443 78.7784 62.7063 78.9972L62.4249 80.7949C61.2994 80.7871 60.4749 80.7792 59.9551 80.7792C59.662 80.7792 59.4432 80.8261 59.2986 80.9199C59.1501 81.0059 59.025 81.1974 58.9234 81.4983C58.8296 81.7914 58.7397 82.2486 58.6577 82.8739C58.5404 83.6672 58.517 84.187 58.5795 84.4371C58.6499 84.6794 58.8961 84.7966 59.3142 84.7966C60.3537 84.7966 61.2057 84.7653 61.8622 84.7028Z" fill="#a0a6b1" fill-rule="evenodd" opacity="1" stroke="none"></path> <path d="M69.2559 80.6698L66.4891 80.6698C66.2898 80.6698 66.1491 80.7089 66.067 80.7792C65.981 80.8535 65.9263 80.9746 65.8951 81.1388L65.8013 81.8578L68.6775 81.8578L68.4587 83.5304L65.5668 83.5304L65.4417 84.4527C65.3988 84.7458 65.5394 84.8904 65.8638 84.8904L68.6306 84.8904L68.5837 86.6724C67.9037 86.7662 66.6063 86.8131 64.6914 86.8131C64.0427 86.8131 63.5581 86.6177 63.2377 86.2191C62.925 85.8127 62.8156 85.289 62.9094 84.6403L63.4878 80.5291C63.5581 79.9781 63.7731 79.5443 64.1287 79.2317C64.4804 78.9191 64.9454 78.7627 65.5199 78.7627C67.427 78.7627 68.7635 78.8174 69.5373 78.9191L69.2559 80.6698Z" fill="#a0a6b1" fill-rule="evenodd" opacity="1" stroke="none"></path> <path d="M80.5152 78.9424L74.7402 78.9424C74.5752 78.9424 74.3277 79.1103 74.3277 79.2781L74.0802 80.5368C74.0802 80.7047 74.1627 80.8725 74.4102 80.8725L75.8952 80.8725C76.0602 80.8725 76.2252 81.0403 76.2252 81.2082L75.4002 86.0753C75.4002 86.2432 75.4827 86.411 75.7302 86.411L77.5452 86.411C77.7102 86.411 77.9577 86.2432 77.9577 86.0753L78.7827 81.2082C78.7827 81.0403 79.0302 80.8725 79.1952 80.8725L80.5152 80.8725C80.5977 80.8725 80.6802 80.8725 80.7627 80.7886L80.5152 79.7816C80.4327 79.5298 80.4327 79.1942 80.5152 78.9424Z" fill="#768293" fill-rule="evenodd" opacity="1" stroke="none"></path> <path d="M89.828 78.9549L88.0957 78.9549C87.9225 78.9549 87.7493 79.0388 87.7493 79.2067L85.9304 82.6472C85.8438 82.8151 85.6705 82.899 85.5839 82.899C85.4107 82.899 85.3241 82.8151 85.2375 82.6472L84.3713 79.2067C84.3713 79.0388 84.1981 78.9549 84.0249 78.9549L82.2926 78.9549L82.0327 78.9549C81.7729 78.9549 81.5131 79.2067 81.5997 79.4584L82.0327 81.0528L83.332 86.3396C83.332 86.5074 83.5052 86.5913 83.6784 86.5913L85.7571 86.5913C85.9304 86.5913 86.017 86.5074 86.1036 86.3396L90.0879 79.4584C90.2611 79.2067 90.1745 78.9549 89.828 78.9549Z" fill="#768293" fill-rule="evenodd" opacity="1" stroke="none"></path> <path d="M72.2196 83.8158C72.0704 83.6479 71.8466 83.6479 71.6974 83.6479C71.3244 83.6479 70.8768 83.9836 70.8022 84.4871L70.653 85.8298C70.5784 86.4172 71.026 86.9207 71.5482 86.9207C71.6228 86.9207 71.772 86.9207 71.8466 86.8367L73.3068 86.338C73.8467 86.1103 73.7411 85.3292 73.3294 84.8095C73.286 84.7548 73.2393 84.7029 73.1895 84.6549L72.2196 83.8158Z" fill="#768293" fill-rule="evenodd" opacity="1" stroke="none"></path> </g> </svg> 