<?xml version="1.0" encoding="UTF-8"?> <svg xmlns="http://www.w3.org/2000/svg" width="129.75" viewBox="0 0 129.75 30" height="30" version="1.0"><defs><clipPath id="a"><path d="M 2 1.964844 L 127.535156 1.964844 L 127.535156 27.414062 L 2 27.414062 Z M 2 1.964844"></path></clipPath><clipPath id="b"><path d="M 3 2 L 30 2 L 30 27.414062 L 3 27.414062 Z M 3 2"></path></clipPath><clipPath id="c"><path d="M 98.851562 11.113281 L 99 11.113281 L 99 19.839844 L 98.851562 19.839844 Z M 98.851562 11.113281"></path></clipPath><clipPath id="d"><path d="M 104 11.113281 L 112 11.113281 L 112 19.839844 L 104 19.839844 Z M 104 11.113281"></path></clipPath><clipPath id="e"><path d="M 112 11.113281 L 120.667969 11.113281 L 120.667969 19.839844 L 112 19.839844 Z M 112 11.113281"></path></clipPath><clipPath id="f"><path d="M 99 16 L 104 16 L 104 19.839844 L 99 19.839844 Z M 99 16"></path></clipPath></defs><g clip-path="url(#a)"><path fill="#12203F" d="M 124.628906 1.964844 L 5.117188 1.964844 C 4.800781 1.957031 4.492188 2.011719 4.199219 2.128906 C 3.902344 2.246094 3.640625 2.414062 3.414062 2.636719 C 3.183594 2.859375 3.003906 3.117188 2.878906 3.410156 C 2.75 3.703125 2.683594 4.011719 2.675781 4.332031 C 2.671875 4.648438 2.722656 4.957031 2.835938 5.253906 L 7.296875 16.277344 L 4.109375 24.125 C 3.996094 24.425781 3.941406 24.734375 3.945312 25.054688 C 3.953125 25.371094 4.019531 25.679688 4.144531 25.972656 C 4.273438 26.265625 4.449219 26.523438 4.679688 26.746094 C 4.90625 26.96875 5.167969 27.136719 5.460938 27.253906 C 5.761719 27.371094 6.070312 27.421875 6.390625 27.414062 L 116.101562 27.414062 C 116.601562 27.421875 117.054688 27.285156 117.472656 27.007812 C 117.886719 26.734375 118.191406 26.363281 118.386719 25.898438 L 126.910156 5.257812 C 127.027344 4.960938 127.082031 4.652344 127.078125 4.332031 C 127.070312 4.011719 127.003906 3.707031 126.878906 3.414062 C 126.753906 3.117188 126.578125 2.859375 126.347656 2.640625 C 126.121094 2.417969 125.859375 2.246094 125.5625 2.132812 C 125.261719 2.011719 124.949219 1.957031 124.628906 1.964844 Z M 124.628906 1.964844"></path></g><path fill="#FFBF00" d="M 11.324219 5.941406 C 11.34375 7.046875 11.433594 8.148438 11.601562 9.238281 C 11.664062 9.621094 11.726562 9.992188 11.804688 10.382812 C 11.914062 10.902344 12.035156 11.425781 12.175781 11.960938 C 12.3125 12.496094 12.46875 13.042969 12.644531 13.613281 C 12.824219 14.179688 12.996094 14.683594 13.195312 15.210938 C 13.390625 15.742188 13.589844 16.257812 13.832031 16.765625 C 13.832031 16.832031 13.890625 16.890625 13.914062 16.953125 C 14.238281 17.714844 14.597656 18.460938 14.964844 19.199219 C 15.101562 19.460938 15.226562 19.734375 15.367188 19.992188 C 15.359375 20.039062 15.375 20.074219 15.417969 20.09375 L 15.457031 20.164062 C 15.476562 20.207031 15.496094 20.246094 15.519531 20.28125 C 15.714844 20.570312 15.984375 20.714844 16.332031 20.714844 L 16.40625 20.714844 C 16.753906 20.714844 17.027344 20.570312 17.222656 20.28125 C 17.246094 20.246094 17.269531 20.207031 17.285156 20.164062 C 17.300781 20.144531 17.3125 20.121094 17.320312 20.09375 L 17.402344 20.023438 C 17.542969 19.765625 17.667969 19.496094 17.804688 19.230469 C 18.171875 18.496094 18.523438 17.746094 18.847656 16.984375 C 18.878906 16.921875 18.90625 16.863281 18.933594 16.796875 C 19.148438 16.289062 19.351562 15.773438 19.570312 15.246094 C 19.785156 14.714844 19.945312 14.179688 20.117188 13.644531 C 20.289062 13.109375 20.449219 12.527344 20.589844 11.992188 C 20.730469 11.457031 20.851562 10.9375 20.953125 10.414062 C 21.027344 10.027344 21.097656 9.652344 21.15625 9.269531 C 21.335938 8.179688 21.4375 7.082031 21.460938 5.976562 L 21.496094 4.511719 C 21.5 4.46875 21.5 4.429688 21.496094 4.390625 L 21.445312 4.316406 L 21.355469 4.265625 L 21.015625 4.265625 C 20.246094 4.332031 19.46875 4.375 18.691406 4.414062 L 14.042969 4.414062 C 13.265625 4.375 12.488281 4.332031 11.714844 4.265625 L 11.460938 4.265625 L 11.371094 4.316406 L 11.320312 4.390625 C 11.3125 4.429688 11.3125 4.46875 11.320312 4.511719 L 11.320312 5.976562 Z M 11.324219 5.941406"></path><path fill="#FFBF00" d="M 11.542969 19.757812 C 11.765625 19.695312 11.941406 19.566406 12.074219 19.375 C 12.203125 19.179688 12.257812 18.96875 12.238281 18.734375 C 12.226562 18.640625 12.203125 18.550781 12.167969 18.460938 C 12.125 18.375 12.074219 18.292969 12.007812 18.21875 L 11.535156 17.667969 L 11.421875 17.535156 L 9.234375 17.535156 C 9.128906 17.535156 9.023438 17.519531 8.921875 17.496094 C 8.703125 17.429688 8.523438 17.308594 8.378906 17.125 C 8.238281 16.945312 8.160156 16.738281 8.144531 16.507812 L 7.953125 13.632812 C 7.496094 12.929688 7.042969 12.207031 6.589844 11.445312 C 6.507812 11.445312 6.429688 11.457031 6.351562 11.476562 L 6.300781 11.476562 C 6.21875 11.503906 6.136719 11.535156 6.058594 11.582031 C 5.988281 11.628906 5.925781 11.683594 5.867188 11.75 L 5.863281 11.75 C 5.808594 11.820312 5.765625 11.898438 5.734375 11.980469 L 5.734375 12.03125 C 5.707031 12.132812 5.691406 12.230469 5.691406 12.335938 L 5.886719 16.449219 C 5.882812 17.398438 6.207031 18.210938 6.863281 18.886719 C 7.519531 19.53125 8.308594 19.855469 9.222656 19.855469 L 9.292969 19.855469 L 11.25 19.816406 C 11.351562 19.820312 11.449219 19.800781 11.542969 19.757812 Z M 11.542969 19.757812"></path><path fill="#FFBF00" d="M 6.21875 7.070312 C 6.671875 7.941406 7.195312 8.898438 7.773438 9.902344 L 7.890625 10.109375 C 8.222656 10.671875 8.527344 11.226562 8.890625 11.761719 C 9.253906 12.296875 9.566406 12.8125 9.90625 13.316406 L 10.078125 13.554688 C 10.351562 13.960938 10.632812 14.339844 10.90625 14.714844 L 11.320312 15.269531 C 11.191406 14.902344 11.066406 14.542969 10.945312 14.167969 C 10.585938 13.042969 10.292969 11.898438 10.058594 10.742188 C 9.738281 9.171875 9.554688 7.585938 9.507812 5.980469 L 9.507812 4.542969 C 9.492188 4.523438 9.46875 4.507812 9.445312 4.5 C 9.34375 4.4375 9.230469 4.402344 9.113281 4.390625 L 8.742188 4.34375 L 8.296875 4.285156 L 6.449219 3.976562 L 6.007812 3.898438 L 5.601562 3.835938 L 5.402344 3.835938 L 5.328125 3.898438 L 5.269531 3.898438 L 5.226562 3.929688 L 5.175781 3.96875 L 5.121094 4.027344 L 5.085938 4.074219 L 5.039062 4.144531 C 5.046875 4.164062 5.046875 4.183594 5.039062 4.203125 L 5.039062 4.285156 C 5.046875 4.300781 5.046875 4.320312 5.039062 4.335938 L 5.039062 4.492188 C 5.054688 4.542969 5.070312 4.59375 5.089844 4.640625 C 5.328125 5.144531 5.613281 5.738281 5.945312 6.394531 Z M 6.21875 7.070312"></path><path fill="#FFBF00" d="M 21.476562 24.144531 C 20.839844 23.867188 20.246094 23.585938 19.640625 23.300781 L 17.839844 22.441406 L 17.203125 22.132812 L 16.644531 21.863281 L 16.171875 21.863281 L 15.617188 22.132812 L 15.585938 22.132812 L 14.945312 22.441406 C 14.355469 22.726562 13.753906 23.015625 13.144531 23.300781 C 12.53125 23.585938 11.933594 23.867188 11.3125 24.144531 C 11.050781 24.269531 10.910156 24.410156 10.90625 24.566406 C 10.90625 24.621094 10.917969 24.675781 10.945312 24.726562 C 10.984375 24.796875 11.035156 24.859375 11.101562 24.90625 C 11.1875 24.976562 11.28125 25.03125 11.382812 25.066406 C 11.671875 25.179688 11.972656 25.234375 12.28125 25.222656 L 20.527344 25.222656 C 20.835938 25.234375 21.140625 25.183594 21.429688 25.066406 C 21.535156 25.03125 21.628906 24.976562 21.710938 24.90625 C 21.78125 24.859375 21.832031 24.800781 21.871094 24.726562 C 21.898438 24.675781 21.910156 24.621094 21.910156 24.566406 C 21.878906 24.410156 21.738281 24.269531 21.476562 24.144531 Z M 21.476562 24.144531"></path><path fill="#FFBF00" d="M 27.066406 12.039062 C 27.035156 11.953125 26.988281 11.875 26.933594 11.804688 C 26.878906 11.738281 26.820312 11.683594 26.746094 11.636719 C 26.671875 11.59375 26.589844 11.558594 26.503906 11.535156 L 26.453125 11.535156 C 26.375 11.515625 26.292969 11.503906 26.210938 11.503906 C 25.757812 12.265625 25.300781 12.992188 24.839844 13.691406 L 24.707031 16.558594 C 24.695312 16.789062 24.621094 16.992188 24.476562 17.171875 C 24.335938 17.355469 24.152344 17.480469 23.929688 17.546875 C 23.828125 17.574219 23.722656 17.585938 23.617188 17.585938 L 21.445312 17.585938 L 21.328125 17.722656 L 20.851562 18.269531 C 20.785156 18.34375 20.730469 18.425781 20.691406 18.515625 C 20.625 18.578125 20.570312 18.652344 20.527344 18.734375 C 20.5 18.914062 20.523438 19.089844 20.601562 19.257812 C 20.714844 19.519531 20.90625 19.695312 21.175781 19.785156 C 21.269531 19.816406 21.363281 19.835938 21.460938 19.835938 L 23.425781 19.875 L 23.496094 19.875 C 24.410156 19.875 25.199219 19.550781 25.855469 18.90625 C 26.171875 18.605469 26.421875 18.253906 26.609375 17.855469 C 26.792969 17.445312 26.898438 17.015625 26.925781 16.566406 L 27.117188 12.453125 C 27.117188 12.347656 27.101562 12.246094 27.066406 12.148438 C 27.078125 12.113281 27.078125 12.074219 27.066406 12.039062 Z M 27.066406 12.039062"></path><path fill="#FFBF00" d="M 27.761719 4.285156 C 27.769531 4.257812 27.769531 4.230469 27.761719 4.203125 C 27.769531 4.183594 27.769531 4.164062 27.761719 4.144531 L 27.722656 4.074219 L 27.683594 4.027344 L 27.628906 3.96875 L 27.539062 3.929688 L 27.144531 3.929688 L 26.734375 3.996094 L 26.261719 4.035156 L 24.40625 4.316406 L 23.988281 4.375 L 23.609375 4.421875 C 23.496094 4.441406 23.386719 4.476562 23.28125 4.53125 C 23.25 4.53125 23.230469 4.546875 23.222656 4.574219 L 23.222656 6.035156 C 23.183594 7.636719 23.003906 9.222656 22.679688 10.792969 C 22.445312 11.933594 22.152344 13.058594 21.800781 14.167969 C 21.679688 14.542969 21.550781 14.902344 21.417969 15.269531 C 21.558594 15.097656 21.699219 14.902344 21.839844 14.714844 C 22.113281 14.339844 22.394531 13.960938 22.667969 13.554688 L 22.839844 13.316406 C 23.175781 12.8125 23.515625 12.296875 23.847656 11.761719 C 24.179688 11.226562 24.523438 10.671875 24.855469 10.109375 L 24.96875 9.902344 C 25.550781 8.898438 26.070312 7.96875 26.53125 7.070312 L 26.875 6.425781 C 27.214844 5.78125 27.511719 5.175781 27.734375 4.671875 C 27.753906 4.632812 27.765625 4.589844 27.773438 4.542969 L 27.773438 4.441406 C 27.78125 4.40625 27.78125 4.371094 27.773438 4.335938 C 27.765625 4.320312 27.761719 4.304688 27.761719 4.285156 Z M 27.761719 4.285156"></path><g clip-path="url(#b)"><path fill="#12203F" d="M 29.214844 3.117188 C 29 2.769531 28.714844 2.496094 28.359375 2.296875 C 28.003906 2.101562 27.625 2 27.21875 2.003906 C 27.09375 2 26.96875 2.011719 26.84375 2.035156 C 25.964844 2.175781 24.34375 2.433594 23.40625 2.550781 C 23.066406 2.59375 22.746094 2.695312 22.4375 2.847656 C 22.066406 2.546875 21.640625 2.394531 21.164062 2.390625 L 20.992188 2.390625 C 19.453125 2.519531 17.898438 2.582031 16.351562 2.589844 C 14.800781 2.59375 13.265625 2.523438 11.726562 2.394531 L 11.550781 2.394531 C 11.074219 2.402344 10.648438 2.554688 10.273438 2.855469 C 9.972656 2.695312 9.652344 2.59375 9.316406 2.550781 C 8.414062 2.433594 6.769531 2.175781 5.863281 2.035156 C 5.738281 2.019531 5.613281 2.019531 5.488281 2.035156 C 5.289062 2.039062 5.097656 2.066406 4.90625 2.117188 C 4.71875 2.171875 4.539062 2.246094 4.367188 2.34375 C 4.195312 2.441406 4.039062 2.558594 3.898438 2.695312 C 3.753906 2.835938 3.632812 2.988281 3.527344 3.15625 C 3.421875 3.324219 3.339844 3.503906 3.28125 3.691406 C 3.21875 3.878906 3.183594 4.074219 3.171875 4.273438 C 3.160156 4.472656 3.167969 4.667969 3.207031 4.863281 C 3.242188 5.058594 3.300781 5.246094 3.382812 5.425781 C 3.886719 6.492188 4.65625 8.039062 5.632812 9.789062 C 5.222656 9.917969 4.867188 10.132812 4.554688 10.433594 C 4.03125 10.984375 3.777344 11.640625 3.796875 12.40625 L 3.796875 12.488281 L 3.996094 16.605469 C 4.011719 16.941406 4.058594 17.273438 4.136719 17.601562 C 4.214844 17.929688 4.324219 18.25 4.460938 18.554688 C 4.601562 18.863281 4.765625 19.152344 4.960938 19.429688 C 5.152344 19.703125 5.371094 19.957031 5.613281 20.191406 C 5.855469 20.421875 6.113281 20.632812 6.394531 20.8125 C 6.675781 20.996094 6.972656 21.148438 7.28125 21.277344 C 7.589844 21.402344 7.910156 21.496094 8.238281 21.558594 C 8.566406 21.625 8.894531 21.65625 9.230469 21.65625 L 9.34375 21.65625 L 11.292969 21.609375 C 11.742188 21.597656 12.160156 21.484375 12.554688 21.265625 C 12.945312 21.046875 13.265625 20.75 13.511719 20.371094 C 13.589844 20.527344 13.660156 20.6875 13.742188 20.835938 L 13.78125 20.914062 C 12.683594 21.449219 11.601562 21.957031 10.515625 22.457031 C 9.851562 22.726562 9.398438 23.207031 9.160156 23.894531 C 8.957031 24.46875 9 25.03125 9.28125 25.570312 C 9.597656 26.078125 10.023438 26.464844 10.554688 26.730469 C 11.085938 26.996094 11.648438 27.105469 12.238281 27.054688 L 20.527344 27.054688 C 21.117188 27.101562 21.675781 26.992188 22.207031 26.726562 C 22.738281 26.457031 23.160156 26.070312 23.476562 25.5625 C 23.75 25.023438 23.78125 24.464844 23.574219 23.894531 C 23.324219 23.222656 22.871094 22.753906 22.214844 22.488281 C 21.148438 22.003906 20.042969 21.480469 18.917969 20.945312 C 18.929688 20.917969 18.945312 20.894531 18.964844 20.867188 C 19.039062 20.71875 19.117188 20.558594 19.191406 20.40625 C 19.441406 20.785156 19.765625 21.085938 20.160156 21.304688 C 20.554688 21.523438 20.980469 21.636719 21.429688 21.644531 L 23.382812 21.6875 L 23.503906 21.6875 C 23.835938 21.6875 24.167969 21.65625 24.496094 21.59375 C 24.820312 21.527344 25.140625 21.433594 25.449219 21.308594 C 25.761719 21.183594 26.054688 21.027344 26.335938 20.847656 C 26.617188 20.664062 26.878906 20.457031 27.117188 20.222656 C 27.359375 19.988281 27.578125 19.734375 27.769531 19.460938 C 27.964844 19.1875 28.132812 18.894531 28.269531 18.585938 C 28.40625 18.28125 28.515625 17.964844 28.59375 17.636719 C 28.675781 17.308594 28.722656 16.976562 28.738281 16.636719 L 28.929688 12.523438 L 28.929688 12.4375 C 28.953125 11.671875 28.699219 11.011719 28.175781 10.457031 C 27.867188 10.160156 27.511719 9.945312 27.105469 9.8125 C 28.085938 8.039062 28.859375 6.480469 29.363281 5.425781 C 29.539062 5.054688 29.613281 4.664062 29.585938 4.253906 C 29.5625 3.84375 29.4375 3.464844 29.214844 3.117188 Z M 4.988281 4.640625 C 4.96875 4.59375 4.953125 4.542969 4.9375 4.492188 L 4.9375 4.335938 C 4.945312 4.320312 4.945312 4.300781 4.9375 4.285156 L 4.9375 4.203125 C 4.945312 4.183594 4.945312 4.164062 4.9375 4.144531 L 4.984375 4.074219 L 5.019531 4.027344 L 5.070312 3.96875 L 5.226562 3.929688 L 5.613281 3.929688 L 6.023438 3.996094 L 6.460938 4.066406 L 8.316406 4.351562 L 8.738281 4.40625 L 9.109375 4.453125 C 9.226562 4.46875 9.335938 4.503906 9.4375 4.5625 C 9.46875 4.566406 9.492188 4.582031 9.503906 4.609375 L 9.535156 6.066406 C 9.578125 7.667969 9.761719 9.253906 10.082031 10.824219 C 10.320312 11.953125 10.613281 13.070312 10.960938 14.167969 C 11.082031 14.542969 11.210938 14.902344 11.339844 15.269531 L 10.925781 14.714844 C 10.648438 14.339844 10.371094 13.960938 10.09375 13.554688 L 9.921875 13.316406 C 9.585938 12.8125 9.246094 12.296875 8.910156 11.761719 C 8.570312 11.226562 8.273438 10.671875 7.910156 10.109375 L 7.773438 9.902344 C 7.1875 8.898438 6.664062 7.96875 6.214844 7.070312 L 5.863281 6.394531 C 5.550781 5.75 5.261719 5.144531 5.027344 4.640625 Z M 12.121094 19.230469 C 12.007812 19.496094 11.816406 19.671875 11.542969 19.757812 C 11.449219 19.792969 11.355469 19.8125 11.257812 19.8125 L 9.296875 19.851562 L 9.230469 19.851562 C 8.3125 19.847656 7.527344 19.523438 6.871094 18.882812 C 6.207031 18.246094 5.847656 17.464844 5.796875 16.539062 L 5.601562 12.425781 C 5.601562 12.324219 5.617188 12.222656 5.644531 12.121094 L 5.644531 12.070312 C 5.679688 11.988281 5.71875 11.910156 5.773438 11.839844 C 5.828125 11.773438 5.894531 11.71875 5.964844 11.671875 C 6.042969 11.628906 6.121094 11.59375 6.207031 11.566406 L 6.257812 11.566406 C 6.335938 11.546875 6.417969 11.535156 6.5 11.535156 C 7.023438 12.207031 7.511719 12.90625 7.960938 13.632812 L 8.101562 16.503906 C 8.113281 16.734375 8.191406 16.9375 8.335938 17.121094 C 8.476562 17.300781 8.660156 17.425781 8.878906 17.488281 C 8.980469 17.515625 9.085938 17.527344 9.191406 17.527344 L 11.363281 17.527344 L 11.949219 18.210938 C 12.015625 18.285156 12.070312 18.367188 12.109375 18.457031 C 12.167969 18.542969 12.210938 18.632812 12.238281 18.734375 C 12.246094 18.910156 12.207031 19.074219 12.121094 19.230469 Z M 19.640625 23.300781 C 20.246094 23.585938 20.855469 23.867188 21.476562 24.144531 C 21.738281 24.269531 21.878906 24.410156 21.882812 24.566406 C 21.882812 24.621094 21.871094 24.675781 21.84375 24.726562 C 21.808594 24.800781 21.753906 24.859375 21.6875 24.90625 C 21.601562 24.976562 21.507812 25.03125 21.40625 25.066406 C 21.113281 25.183594 20.8125 25.234375 20.5 25.222656 L 12.238281 25.222656 C 11.925781 25.234375 11.628906 25.179688 11.339844 25.066406 C 11.234375 25.03125 11.144531 24.976562 11.058594 24.90625 C 10.992188 24.859375 10.9375 24.796875 10.898438 24.726562 C 10.875 24.675781 10.859375 24.621094 10.859375 24.566406 C 10.859375 24.410156 11.007812 24.269531 11.269531 24.144531 C 11.90625 23.867188 12.492188 23.585938 13.097656 23.300781 L 14.902344 22.441406 L 15.539062 22.132812 L 15.570312 22.132812 L 16.125 21.863281 L 16.597656 21.863281 L 17.160156 22.132812 L 17.796875 22.441406 Z M 19.511719 15.210938 C 19.320312 15.742188 19.117188 16.257812 18.875 16.765625 C 18.875 16.832031 18.824219 16.890625 18.792969 16.953125 C 18.464844 17.714844 18.117188 18.460938 17.746094 19.199219 C 17.613281 19.460938 17.484375 19.734375 17.34375 19.992188 L 17.285156 20.09375 C 17.28125 20.121094 17.269531 20.144531 17.253906 20.164062 C 17.234375 20.207031 17.214844 20.246094 17.191406 20.28125 C 16.992188 20.570312 16.722656 20.714844 16.375 20.714844 L 16.296875 20.714844 C 15.953125 20.714844 15.683594 20.570312 15.488281 20.28125 C 15.464844 20.246094 15.445312 20.207031 15.425781 20.164062 L 15.425781 20.09375 C 15.425781 20.0625 15.394531 20.03125 15.375 19.992188 C 15.234375 19.734375 15.105469 19.460938 14.972656 19.199219 C 14.601562 18.460938 14.246094 17.714844 13.921875 16.953125 C 13.921875 16.890625 13.871094 16.832031 13.839844 16.765625 C 13.628906 16.257812 13.421875 15.742188 13.199219 15.210938 C 12.976562 14.683594 12.824219 14.148438 12.652344 13.613281 C 12.480469 13.078125 12.320312 12.496094 12.179688 11.960938 C 12.039062 11.425781 11.917969 10.902344 11.8125 10.382812 C 11.734375 9.992188 11.671875 9.621094 11.605469 9.238281 C 11.433594 8.148438 11.332031 7.046875 11.308594 5.941406 L 11.308594 4.480469 C 11.300781 4.4375 11.300781 4.398438 11.308594 4.355469 L 11.359375 4.285156 L 11.445312 4.234375 L 11.734375 4.234375 C 12.503906 4.296875 13.285156 4.34375 14.0625 4.382812 L 18.707031 4.382812 C 19.488281 4.34375 20.265625 4.296875 21.035156 4.234375 L 21.289062 4.234375 L 21.378906 4.285156 L 21.429688 4.355469 C 21.4375 4.398438 21.4375 4.4375 21.429688 4.480469 L 21.429688 5.941406 C 21.40625 7.050781 21.304688 8.148438 21.125 9.238281 C 21.066406 9.621094 20.996094 9.992188 20.921875 10.382812 C 20.820312 10.902344 20.699219 11.425781 20.558594 11.960938 C 20.417969 12.496094 20.257812 13.042969 20.085938 13.613281 C 19.914062 14.179688 19.703125 14.683594 19.511719 15.210938 Z M 27.164062 12.394531 L 26.972656 16.507812 C 26.945312 16.957031 26.839844 17.390625 26.652344 17.796875 C 26.464844 18.195312 26.214844 18.546875 25.898438 18.851562 C 25.242188 19.496094 24.457031 19.816406 23.542969 19.816406 L 23.472656 19.816406 L 21.507812 19.777344 C 21.410156 19.777344 21.3125 19.761719 21.21875 19.726562 C 20.953125 19.636719 20.761719 19.460938 20.648438 19.199219 C 20.566406 19.054688 20.527344 18.898438 20.527344 18.734375 C 20.53125 18.640625 20.554688 18.550781 20.59375 18.460938 C 20.636719 18.371094 20.6875 18.289062 20.753906 18.21875 L 21.234375 17.667969 L 21.347656 17.535156 L 23.523438 17.535156 C 23.628906 17.535156 23.730469 17.519531 23.835938 17.496094 C 24.042969 17.425781 24.214844 17.300781 24.351562 17.121094 C 24.492188 16.941406 24.570312 16.738281 24.582031 16.507812 L 24.714844 13.636719 C 25.171875 12.941406 25.632812 12.210938 26.085938 11.453125 C 26.164062 11.441406 26.246094 11.441406 26.328125 11.453125 L 26.378906 11.453125 C 26.460938 11.476562 26.542969 11.511719 26.621094 11.554688 C 26.691406 11.601562 26.753906 11.65625 26.804688 11.722656 C 26.863281 11.792969 26.90625 11.871094 26.9375 11.953125 C 26.945312 11.972656 26.945312 11.988281 26.9375 12.007812 C 27.023438 12.113281 27.078125 12.230469 27.109375 12.359375 Z M 27.800781 4.441406 L 27.800781 4.492188 C 27.789062 4.542969 27.773438 4.59375 27.75 4.640625 C 27.511719 5.144531 27.226562 5.738281 26.886719 6.394531 L 26.542969 7.039062 C 26.085938 7.910156 25.5625 8.863281 24.988281 9.871094 L 24.875 10.078125 C 24.542969 10.640625 24.203125 11.195312 23.867188 11.730469 C 23.527344 12.265625 23.230469 12.78125 22.859375 13.285156 L 22.6875 13.523438 C 22.414062 13.929688 22.132812 14.308594 21.859375 14.683594 C 21.71875 14.871094 21.578125 15.0625 21.4375 15.238281 C 21.570312 14.871094 21.699219 14.507812 21.820312 14.136719 C 22.175781 13.007812 22.472656 11.867188 22.707031 10.710938 C 23.03125 9.140625 23.210938 7.554688 23.246094 5.949219 L 23.246094 4.542969 C 23.265625 4.527344 23.285156 4.511719 23.304688 4.5 C 23.410156 4.445312 23.519531 4.410156 23.636719 4.390625 L 24.011719 4.34375 L 24.433594 4.285156 L 26.261719 4 L 26.722656 3.898438 L 27.128906 3.835938 L 27.460938 3.835938 L 27.539062 3.898438 L 27.582031 3.9375 L 27.640625 3.996094 L 27.679688 4.039062 L 27.71875 4.113281 C 27.722656 4.128906 27.722656 4.148438 27.71875 4.167969 C 27.722656 4.199219 27.722656 4.226562 27.71875 4.253906 L 27.71875 4.304688 C 27.742188 4.355469 27.761719 4.410156 27.773438 4.464844 Z M 27.800781 4.441406"></path></g><path fill="#FFF" d="M 34.582031 16.417969 L 34.339844 16.65625 C 34.28125 16.710938 34.246094 16.777344 34.230469 16.855469 L 33.832031 18.960938 C 33.792969 19.167969 33.667969 19.269531 33.460938 19.269531 L 31.152344 19.269531 C 31.035156 19.265625 30.9375 19.21875 30.863281 19.128906 C 30.789062 19.035156 30.761719 18.929688 30.785156 18.8125 L 32.371094 10.464844 C 32.40625 10.253906 32.53125 10.148438 32.742188 10.148438 L 35.046875 10.148438 C 35.167969 10.152344 35.261719 10.199219 35.339844 10.289062 C 35.414062 10.382812 35.441406 10.488281 35.417969 10.605469 L 35.09375 12.285156 C 35.0625 12.464844 35.128906 12.601562 35.289062 12.6875 C 35.449219 12.777344 35.597656 12.757812 35.730469 12.632812 L 38.050781 10.238281 C 38.125 10.160156 38.210938 10.121094 38.320312 10.121094 L 40.925781 10.121094 C 41.085938 10.136719 41.195312 10.214844 41.253906 10.363281 C 41.3125 10.515625 41.289062 10.648438 41.179688 10.769531 L 37.515625 14.117188 C 37.355469 14.261719 37.332031 14.425781 37.445312 14.613281 L 39.996094 18.625 C 40.074219 18.753906 40.078125 18.882812 40.007812 19.019531 C 39.933594 19.152344 39.820312 19.21875 39.671875 19.21875 L 36.851562 19.21875 C 36.699219 19.21875 36.585938 19.148438 36.515625 19.011719 L 35.1875 16.429688 C 35.113281 16.328125 35.015625 16.277344 34.890625 16.273438 C 34.761719 16.269531 34.660156 16.320312 34.582031 16.417969 Z M 34.582031 16.417969"></path><path fill="#FFF" d="M 52.925781 10.148438 C 53.078125 10.148438 53.191406 10.21875 53.261719 10.355469 C 53.332031 10.496094 53.324219 10.628906 53.238281 10.753906 L 49.054688 16.863281 C 47.867188 18.597656 46.503906 19.441406 44.527344 19.441406 C 44.210938 19.441406 43.894531 19.421875 43.578125 19.378906 C 43.457031 19.355469 43.367188 19.292969 43.304688 19.183594 C 43.246094 19.074219 43.238281 18.960938 43.285156 18.84375 L 43.96875 17.199219 C 44.050781 17.011719 44.195312 16.9375 44.394531 16.980469 C 44.5 16.984375 44.605469 16.984375 44.714844 16.980469 C 44.992188 16.988281 45.257812 16.9375 45.511719 16.816406 C 45.597656 16.773438 45.660156 16.703125 45.691406 16.605469 C 45.722656 16.511719 45.71875 16.417969 45.675781 16.328125 L 43.234375 10.671875 C 43.207031 10.613281 43.195312 10.546875 43.199219 10.484375 C 43.203125 10.417969 43.222656 10.355469 43.261719 10.300781 C 43.296875 10.246094 43.34375 10.203125 43.402344 10.171875 C 43.457031 10.140625 43.519531 10.128906 43.585938 10.128906 L 46.261719 10.128906 C 46.433594 10.128906 46.550781 10.210938 46.613281 10.375 L 47.679688 13.128906 C 47.734375 13.273438 47.84375 13.355469 47.996094 13.367188 C 48.152344 13.382812 48.269531 13.324219 48.355469 13.191406 L 50.171875 10.347656 C 50.246094 10.226562 50.355469 10.167969 50.496094 10.167969 Z M 52.925781 10.148438"></path><path fill="#FFF" d="M 61.277344 12.554688 L 58.414062 12.554688 C 58.203125 12.554688 58.078125 12.660156 58.039062 12.871094 L 56.863281 18.960938 C 56.824219 19.167969 56.703125 19.269531 56.496094 19.269531 L 54.207031 19.269531 C 54.085938 19.269531 53.988281 19.222656 53.910156 19.128906 C 53.835938 19.035156 53.808594 18.929688 53.828125 18.8125 L 55.417969 10.464844 C 55.453125 10.25 55.578125 10.144531 55.792969 10.148438 L 64.8125 10.148438 C 64.933594 10.148438 65.03125 10.195312 65.109375 10.289062 C 65.183594 10.382812 65.210938 10.488281 65.191406 10.605469 L 63.601562 18.992188 C 63.5625 19.199219 63.4375 19.300781 63.226562 19.300781 L 60.925781 19.300781 C 60.804688 19.300781 60.707031 19.253906 60.632812 19.160156 C 60.554688 19.070312 60.527344 18.960938 60.550781 18.84375 L 61.652344 13.039062 C 61.683594 12.914062 61.660156 12.800781 61.582031 12.703125 C 61.503906 12.601562 61.402344 12.550781 61.277344 12.554688 Z M 61.277344 12.554688"></path><path fill="#FFF" d="M 73.242188 10 C 76.378906 10 78.4375 11.933594 77.910156 14.714844 C 77.378906 17.496094 74.585938 19.4375 71.445312 19.4375 C 68.300781 19.4375 66.25 17.5 66.777344 14.714844 C 67.308594 11.929688 70.097656 10 73.242188 10 Z M 72.800781 12.433594 C 72.46875 12.421875 72.144531 12.472656 71.828125 12.578125 C 71.511719 12.683594 71.222656 12.84375 70.960938 13.050781 C 70.695312 13.257812 70.476562 13.507812 70.300781 13.792969 C 70.121094 14.078125 70 14.386719 69.925781 14.714844 C 69.683594 16.003906 70.457031 17 71.9375 17 C 72.269531 17.007812 72.59375 16.957031 72.910156 16.851562 C 73.226562 16.746094 73.515625 16.589844 73.777344 16.378906 C 74.039062 16.171875 74.257812 15.925781 74.433594 15.636719 C 74.609375 15.351562 74.734375 15.042969 74.804688 14.714844 C 75.019531 13.445312 74.257812 12.433594 72.800781 12.433594 Z M 72.800781 12.433594"></path><path fill="#FFF" d="M 86.335938 15.785156 L 83.460938 15.785156 C 83.257812 15.789062 83.132812 15.890625 83.09375 16.09375 L 82.550781 18.960938 C 82.507812 19.164062 82.386719 19.265625 82.179688 19.269531 L 79.867188 19.269531 C 79.75 19.269531 79.652344 19.222656 79.578125 19.132812 C 79.5 19.039062 79.476562 18.933594 79.496094 18.816406 L 81.085938 10.433594 C 81.125 10.230469 81.25 10.125 81.453125 10.121094 L 83.769531 10.121094 C 83.886719 10.121094 83.984375 10.167969 84.058594 10.261719 C 84.132812 10.351562 84.160156 10.457031 84.136719 10.574219 L 83.699219 12.894531 C 83.675781 13.011719 83.703125 13.117188 83.777344 13.210938 C 83.851562 13.300781 83.949219 13.347656 84.066406 13.347656 L 86.941406 13.347656 C 87.152344 13.347656 87.273438 13.246094 87.3125 13.039062 L 87.808594 10.457031 C 87.847656 10.25 87.972656 10.148438 88.179688 10.148438 L 90.488281 10.148438 C 90.605469 10.144531 90.703125 10.191406 90.78125 10.285156 C 90.855469 10.375 90.882812 10.480469 90.855469 10.601562 L 89.269531 18.984375 C 89.234375 19.195312 89.109375 19.296875 88.898438 19.296875 L 86.59375 19.296875 C 86.472656 19.296875 86.378906 19.25 86.300781 19.15625 C 86.226562 19.066406 86.199219 18.960938 86.222656 18.84375 L 86.707031 16.261719 C 86.742188 16.140625 86.71875 16.03125 86.644531 15.929688 C 86.566406 15.828125 86.464844 15.78125 86.335938 15.785156 Z M 86.335938 15.785156"></path><path fill="#FFBF00" d="M 99.832031 12.554688 L 98.015625 12.554688 C 97.898438 12.554688 97.800781 12.507812 97.726562 12.417969 C 97.652344 12.324219 97.625 12.21875 97.648438 12.101562 L 97.960938 10.457031 C 98 10.25 98.121094 10.148438 98.328125 10.148438 L 105.4375 10.148438 C 105.4375 10.148438 105.285156 10.148438 105.214844 10.492188 C 105.144531 10.832031 104.839844 12.554688 104.839844 12.554688 L 103.679688 12.554688 C 103.472656 12.558594 103.347656 12.660156 103.308594 12.863281 L 102.128906 18.960938 C 102.09375 19.167969 101.96875 19.273438 101.757812 19.269531 L 99.453125 19.269531 C 99.332031 19.269531 99.238281 19.222656 99.160156 19.132812 C 99.085938 19.039062 99.058594 18.933594 99.082031 18.816406 L 100.183594 13.011719 C 100.207031 12.898438 100.183594 12.792969 100.113281 12.703125 C 100.042969 12.609375 99.949219 12.558594 99.832031 12.554688 Z M 99.832031 12.554688"></path><path fill="#FFBF00" d="M 107.507812 10.464844 C 107.546875 10.253906 107.667969 10.148438 107.878906 10.148438 L 113.738281 10.148438 C 115.84375 10.148438 116.519531 11.4375 116.289062 12.46875 C 116.136719 13.265625 115.710938 13.855469 115.011719 14.246094 C 114.953125 14.273438 114.90625 14.316406 114.871094 14.371094 C 114.832031 14.425781 114.8125 14.488281 114.808594 14.554688 C 114.804688 14.621094 114.816406 14.683594 114.84375 14.742188 C 114.871094 14.804688 114.914062 14.851562 114.96875 14.890625 C 115.269531 15.109375 115.480469 15.398438 115.605469 15.75 C 115.730469 16.105469 115.746094 16.460938 115.652344 16.824219 C 115.410156 18.113281 114.214844 19.300781 112.175781 19.300781 L 106.246094 19.300781 C 106.128906 19.300781 106.03125 19.253906 105.957031 19.160156 C 105.882812 19.066406 105.855469 18.960938 105.878906 18.84375 Z M 111.804688 17.03125 C 112.003906 17.042969 112.183594 16.984375 112.339844 16.863281 C 112.5 16.742188 112.597656 16.582031 112.640625 16.386719 C 112.707031 16.058594 112.488281 15.742188 112.042969 15.742188 L 109.886719 15.742188 C 109.679688 15.742188 109.554688 15.84375 109.519531 16.050781 L 109.429688 16.519531 C 109.40625 16.640625 109.429688 16.746094 109.503906 16.839844 C 109.582031 16.9375 109.679688 16.984375 109.796875 16.984375 Z M 111.371094 13.574219 C 112.308594 13.574219 112.449219 13.574219 112.480469 13.574219 C 112.625 13.542969 112.738281 13.46875 112.824219 13.347656 C 112.910156 13.226562 112.945312 13.089844 112.925781 12.945312 C 112.910156 12.796875 112.84375 12.675781 112.734375 12.578125 C 112.625 12.480469 112.496094 12.433594 112.347656 12.4375 L 110.539062 12.4375 C 110.328125 12.433594 110.199219 12.539062 110.160156 12.75 L 110.089844 13.128906 C 110.066406 13.246094 110.09375 13.351562 110.167969 13.445312 C 110.242188 13.539062 110.339844 13.585938 110.460938 13.585938 Z M 111.371094 13.574219"></path><path fill="#FFBF00" d="M 95.421875 16.992188 L 94.148438 16 C 94.054688 15.921875 93.953125 15.863281 93.839844 15.824219 L 93.738281 15.824219 L 93.507812 15.785156 L 93.285156 15.785156 C 93.203125 15.800781 93.121094 15.820312 93.042969 15.851562 L 93 15.851562 C 92.933594 15.875 92.871094 15.910156 92.816406 15.953125 L 92.761719 15.953125 C 92.691406 16.011719 92.625 16.078125 92.566406 16.152344 L 92.566406 16.1875 C 92.519531 16.246094 92.480469 16.308594 92.449219 16.378906 L 92.449219 16.449219 C 92.417969 16.539062 92.390625 16.628906 92.375 16.722656 L 92.085938 18.316406 C 92.074219 18.410156 92.074219 18.507812 92.085938 18.605469 L 92.085938 18.734375 C 92.101562 18.792969 92.113281 18.855469 92.132812 18.914062 L 92.171875 19.003906 C 92.171875 19.054688 92.226562 19.109375 92.261719 19.160156 L 92.316406 19.238281 L 92.449219 19.371094 L 92.507812 19.425781 C 92.578125 19.476562 92.652344 19.519531 92.730469 19.558594 L 92.777344 19.558594 L 92.988281 19.617188 L 93.34375 19.617188 C 93.433594 19.601562 93.523438 19.582031 93.613281 19.554688 L 95.089844 18.945312 C 95.285156 18.867188 95.441406 18.746094 95.570312 18.578125 C 95.691406 18.421875 95.761719 18.242188 95.785156 18.042969 C 95.832031 17.738281 95.765625 17.460938 95.582031 17.210938 C 95.542969 17.125 95.492188 17.054688 95.421875 16.992188 Z M 95.421875 16.992188"></path><path fill="#12203F" d="M 30.71875 6.546875 L 117.257812 6.546875 L 117.257812 22.542969 L 30.71875 22.542969 L 30.71875 6.546875"></path><g fill="#FFF"><g><g><path d="M 5.296875 -3.953125 L 5.296875 -3.90625 C 5.398438 -3.863281 5.515625 -3.757812 5.640625 -3.59375 C 5.765625 -3.4375 5.859375 -3.273438 5.921875 -3.109375 L 7.3125 0 L 4.609375 0 L 3.375 -3.328125 L 3.015625 -3.328125 C 3.046875 -3.078125 3.046875 -2.816406 3.015625 -2.546875 L 2.65625 0 L 0.140625 0 L 1.25 -7.953125 L 3.765625 -7.953125 L 3.453125 -5.75 C 3.421875 -5.457031 3.363281 -5.1875 3.28125 -4.9375 L 3.65625 -4.9375 L 5.59375 -7.953125 L 8.359375 -7.953125 L 6.140625 -4.640625 C 5.929688 -4.316406 5.648438 -4.085938 5.296875 -3.953125 Z M 5.296875 -3.953125" transform="translate(30.885 19.516)"></path></g></g></g><g fill="#FFF"><g><g><path d="M 3.71875 -7.953125 L 2.90625 -2.4375 C 2.894531 -2.257812 2.914062 -2.140625 2.96875 -2.078125 C 3.03125 -2.015625 3.148438 -1.984375 3.328125 -1.984375 L 5.953125 -1.984375 L 5.90625 -0.109375 C 5.132812 -0.00390625 3.863281 0.046875 2.09375 0.046875 C 1.507812 0.046875 1.050781 -0.125 0.71875 -0.46875 C 0.394531 -0.820312 0.273438 -1.269531 0.359375 -1.8125 L 1.203125 -7.953125 Z M 3.71875 -7.953125" transform="translate(38.588 19.516)"></path></g></g></g><g fill="#FFF"><g><g><path d="M 4.8125 -1.6875 L 2.65625 -1.6875 L 2.03125 0 L -0.5625 0 L 2.5 -7.359375 C 2.65625 -7.753906 2.945312 -7.953125 3.375 -7.953125 L 5.640625 -7.953125 C 5.835938 -7.953125 6.015625 -7.882812 6.171875 -7.75 C 6.328125 -7.613281 6.414062 -7.453125 6.4375 -7.265625 L 7.453125 0 L 4.953125 0 Z M 4.6875 -3.5 L 4.546875 -5.21875 C 4.523438 -5.425781 4.519531 -5.722656 4.53125 -6.109375 L 4.203125 -6.109375 C 4.148438 -5.796875 4.078125 -5.507812 3.984375 -5.25 L 3.328125 -3.5 Z M 4.6875 -3.5" transform="translate(44.952 19.516)"></path></g></g></g><g fill="#FFF"><g><g><path d="M 0.125 0 L 1.25 -7.953125 C 2.226562 -8.035156 3.304688 -8.078125 4.484375 -8.078125 C 5.378906 -8.078125 6.082031 -7.957031 6.59375 -7.71875 C 7.113281 -7.476562 7.476562 -7.046875 7.6875 -6.421875 C 7.894531 -5.804688 7.921875 -4.960938 7.765625 -3.890625 C 7.648438 -3.066406 7.503906 -2.40625 7.328125 -1.90625 C 7.148438 -1.414062 6.898438 -1.015625 6.578125 -0.703125 C 6.253906 -0.390625 5.867188 -0.175781 5.421875 -0.0625 C 4.972656 0.0507812 4.398438 0.109375 3.703125 0.109375 C 2.492188 0.109375 1.300781 0.0703125 0.125 0 Z M 2.875 -1.703125 L 3.671875 -1.6875 C 4.085938 -1.6875 4.40625 -1.847656 4.625 -2.171875 C 4.84375 -2.492188 5.015625 -3.128906 5.140625 -4.078125 C 5.265625 -4.960938 5.28125 -5.546875 5.1875 -5.828125 C 5.101562 -6.117188 4.84375 -6.265625 4.40625 -6.265625 L 3.5 -6.265625 Z M 2.875 -1.703125" transform="translate(52.77 19.516)"></path></g></g></g><g fill="#FFF"><g><g><path d="M 2.625 0 L 0.140625 0 L 1.25 -7.953125 L 3.75 -7.953125 Z M 2.625 0" transform="translate(60.841 19.516)"></path></g></g></g><g fill="#FFF"><g><g><path d="M 4.484375 -8.125 C 5.023438 -8.125 5.488281 -8.082031 5.875 -8 C 6.257812 -7.914062 6.601562 -7.773438 6.90625 -7.578125 C 7.207031 -7.378906 7.425781 -7.117188 7.5625 -6.796875 C 7.707031 -6.472656 7.804688 -6.070312 7.859375 -5.59375 C 7.910156 -5.113281 7.882812 -4.546875 7.78125 -3.890625 C 7.675781 -3.066406 7.519531 -2.390625 7.3125 -1.859375 C 7.113281 -1.335938 6.847656 -0.925781 6.515625 -0.625 C 6.179688 -0.332031 5.789062 -0.128906 5.34375 -0.015625 C 4.90625 0.0976562 4.363281 0.15625 3.71875 0.15625 C 2.769531 0.15625 2.039062 0.03125 1.53125 -0.21875 C 1.03125 -0.46875 0.6875 -0.898438 0.5 -1.515625 C 0.320312 -2.128906 0.3125 -2.984375 0.46875 -4.078125 C 0.582031 -4.890625 0.734375 -5.550781 0.921875 -6.0625 C 1.117188 -6.582031 1.382812 -6.992188 1.71875 -7.296875 C 2.050781 -7.609375 2.429688 -7.820312 2.859375 -7.9375 C 3.296875 -8.0625 3.835938 -8.125 4.484375 -8.125 Z M 5.203125 -5.84375 C 5.117188 -6.125 4.867188 -6.265625 4.453125 -6.265625 C 4.046875 -6.265625 3.753906 -6.113281 3.578125 -5.8125 C 3.410156 -5.519531 3.25 -4.878906 3.09375 -3.890625 C 2.957031 -2.972656 2.929688 -2.375 3.015625 -2.09375 C 3.097656 -1.820312 3.347656 -1.6875 3.765625 -1.6875 C 4.203125 -1.6875 4.503906 -1.832031 4.671875 -2.125 C 4.835938 -2.425781 5 -3.078125 5.15625 -4.078125 C 5.28125 -4.984375 5.296875 -5.570312 5.203125 -5.84375 Z M 5.203125 -5.84375" transform="translate(64.554 19.516)"></path></g></g></g><g fill="#FFF"><g><g><path d="M 8.46875 -7.953125 L 7.453125 -0.8125 C 7.421875 -0.53125 7.332031 -0.320312 7.1875 -0.1875 C 7.039062 -0.0625 6.828125 0 6.546875 0 L 5.71875 0 C 5.476562 0 5.300781 -0.0546875 5.1875 -0.171875 C 5.082031 -0.285156 4.960938 -0.484375 4.828125 -0.765625 L 3.46875 -3.5 C 3.320312 -3.789062 3.1875 -4.226562 3.0625 -4.8125 L 2.984375 -4.8125 C 3.003906 -4.257812 2.984375 -3.769531 2.921875 -3.34375 L 2.421875 0 L 0.125 0 L 1.125 -7.140625 C 1.164062 -7.421875 1.257812 -7.625 1.40625 -7.75 C 1.550781 -7.882812 1.765625 -7.953125 2.046875 -7.953125 L 2.875 -7.953125 C 3 -7.953125 3.101562 -7.9375 3.1875 -7.90625 C 3.28125 -7.875 3.359375 -7.8125 3.421875 -7.71875 C 3.492188 -7.632812 3.546875 -7.5625 3.578125 -7.5 C 3.617188 -7.445312 3.675781 -7.34375 3.75 -7.1875 L 5.078125 -4.59375 C 5.285156 -4.175781 5.445312 -3.71875 5.5625 -3.21875 L 5.65625 -3.21875 C 5.625 -3.675781 5.632812 -4.125 5.6875 -4.5625 L 6.171875 -7.953125 Z M 8.46875 -7.953125" transform="translate(72.625 19.516)"></path></g></g></g><g fill="#FFF"><g><g><path d="M 2.625 0 L 0.140625 0 L 1.25 -7.953125 L 3.75 -7.953125 Z M 2.625 0" transform="translate(81.043 19.516)"></path></g></g></g><g fill="#FFF"><g><g><path d="M 6.28125 -2.0625 L 6.375 -0.234375 C 5.582031 0.015625 4.664062 0.140625 3.625 0.140625 C 2.28125 0.140625 1.363281 -0.171875 0.875 -0.796875 C 0.394531 -1.421875 0.257812 -2.515625 0.46875 -4.078125 C 0.582031 -4.890625 0.726562 -5.546875 0.90625 -6.046875 C 1.09375 -6.554688 1.347656 -6.96875 1.671875 -7.28125 C 1.992188 -7.59375 2.375 -7.804688 2.8125 -7.921875 C 3.257812 -8.035156 3.828125 -8.09375 4.515625 -8.09375 C 5.492188 -8.09375 6.363281 -7.984375 7.125 -7.765625 L 6.84375 -5.96875 C 5.71875 -5.976562 4.894531 -5.984375 4.375 -5.984375 C 4.082031 -5.984375 3.863281 -5.9375 3.71875 -5.84375 C 3.570312 -5.757812 3.445312 -5.566406 3.34375 -5.265625 C 3.25 -4.972656 3.160156 -4.515625 3.078125 -3.890625 C 2.960938 -3.097656 2.9375 -2.578125 3 -2.328125 C 3.070312 -2.085938 3.316406 -1.96875 3.734375 -1.96875 C 4.773438 -1.96875 5.625 -2 6.28125 -2.0625 Z M 6.28125 -2.0625" transform="translate(84.755 19.516)"></path></g></g></g><g fill="#FFF"><g><g><path d="M 6.71875 -6.09375 L 3.953125 -6.09375 C 3.753906 -6.09375 3.613281 -6.054688 3.53125 -5.984375 C 3.445312 -5.910156 3.390625 -5.789062 3.359375 -5.625 L 3.265625 -4.90625 L 6.140625 -4.90625 L 5.921875 -3.234375 L 3.03125 -3.234375 L 2.90625 -2.3125 C 2.863281 -2.019531 3.003906 -1.875 3.328125 -1.875 L 6.09375 -1.875 L 6.046875 -0.09375 C 5.367188 0 4.070312 0.046875 2.15625 0.046875 C 1.507812 0.046875 1.023438 -0.148438 0.703125 -0.546875 C 0.390625 -0.953125 0.28125 -1.476562 0.375 -2.125 L 0.953125 -6.234375 C 1.023438 -6.785156 1.238281 -7.21875 1.59375 -7.53125 C 1.945312 -7.84375 2.410156 -8 2.984375 -8 C 4.890625 -8 6.226562 -7.945312 7 -7.84375 Z M 6.71875 -6.09375" transform="translate(91.708 19.516)"></path></g></g></g><g clip-path="url(#c)"><path fill="#A0A6B1" d="M 98.460938 11.523438 L 92.867188 11.523438 C 92.695312 11.523438 92.4375 11.695312 92.4375 11.867188 L 91.234375 18.894531 C 91.234375 19.066406 91.320312 19.238281 91.578125 19.238281 L 97.253906 19.238281 C 97.425781 19.238281 97.683594 19.066406 97.683594 18.894531 L 97.941406 17.695312 C 97.941406 17.523438 97.855469 17.351562 97.597656 17.351562 L 94.074219 17.351562 L 94.246094 16.324219 L 97.167969 16.324219 C 97.339844 16.324219 97.597656 16.152344 97.597656 15.980469 L 97.769531 14.867188 C 97.769531 14.695312 97.683594 14.523438 97.425781 14.523438 L 94.503906 14.523438 L 94.675781 13.582031 L 98.027344 13.582031 C 98.199219 13.582031 98.460938 13.410156 98.460938 13.238281 L 98.71875 12.039062 C 98.71875 11.695312 98.632812 11.523438 98.460938 11.523438 Z M 98.460938 11.523438"></path></g><g clip-path="url(#d)"><path fill="#FABB04" d="M 111.101562 11.523438 L 105.082031 11.523438 C 104.910156 11.523438 104.652344 11.695312 104.652344 11.867188 L 104.394531 13.152344 C 104.394531 13.324219 104.480469 13.496094 104.738281 13.496094 L 106.285156 13.496094 C 106.457031 13.496094 106.628906 13.667969 106.628906 13.839844 L 105.769531 18.808594 C 105.769531 18.980469 105.855469 19.152344 106.113281 19.152344 L 108.007812 19.152344 C 108.179688 19.152344 108.4375 18.980469 108.4375 18.808594 L 109.296875 13.839844 C 109.296875 13.667969 109.554688 13.496094 109.726562 13.496094 L 111.101562 13.496094 C 111.1875 13.496094 111.273438 13.496094 111.359375 13.410156 L 111.101562 12.382812 C 111.015625 12.125 111.015625 11.78125 111.101562 11.523438 Z M 111.101562 11.523438"></path></g><g clip-path="url(#e)"><path fill="#FABB04" d="M 120.824219 11.523438 L 119.101562 11.523438 C 118.929688 11.523438 118.757812 11.609375 118.757812 11.78125 L 116.953125 15.296875 C 116.867188 15.46875 116.695312 15.554688 116.609375 15.554688 C 116.4375 15.554688 116.351562 15.46875 116.265625 15.296875 L 115.402344 11.78125 C 115.402344 11.609375 115.230469 11.523438 115.058594 11.523438 L 113.082031 11.523438 C 112.824219 11.523438 112.566406 11.78125 112.652344 12.039062 L 113.082031 13.667969 L 114.371094 19.066406 C 114.371094 19.238281 114.542969 19.324219 114.714844 19.324219 L 116.78125 19.324219 C 116.953125 19.324219 117.039062 19.238281 117.125 19.066406 L 121.082031 12.039062 C 121.253906 11.78125 121.167969 11.523438 120.824219 11.523438 Z M 120.824219 11.523438"></path></g><g clip-path="url(#f)"><path fill="#FABB04" d="M 101.554688 16.582031 C 101.382812 16.410156 101.125 16.410156 100.953125 16.410156 C 100.523438 16.410156 100.007812 16.753906 99.921875 17.265625 L 99.75 18.636719 C 99.664062 19.238281 100.179688 19.753906 100.78125 19.753906 C 100.867188 19.753906 101.039062 19.753906 101.125 19.667969 L 102.414062 19.152344 C 103.105469 18.894531 103.277344 17.953125 102.671875 17.4375 Z M 101.554688 16.582031"></path></g></svg> 