<svg width="26" height="26" viewBox="0 0 26 26" fill="none" xmlns="http://www.w3.org/2000/svg">
<path d="M4.25 13H3V23C3 23.663 3.26339 24.2989 3.73223 24.7678C4.20107 25.2366 4.83696 25.5 5.5 25.5H11.75V13H4.25ZM20.5 13H14.25V25.5H20.5C21.163 25.5 21.7989 25.2366 22.2678 24.7678C22.7366 24.2989 23 23.663 23 23V13H20.5ZM21.4888 6.75C21.6721 6.14223 21.7602 5.50974 21.75 4.875C21.75 2.4625 19.7875 0.5 17.375 0.5C15.3475 0.5 13.9937 2.3525 13.12 4.35625C12.2587 2.4625 10.8363 0.5 8.625 0.5C6.2125 0.5 4.25 2.4625 4.25 4.875C4.25 5.62 4.34875 6.23625 4.51125 6.75H0.5V11.75H11.75V9.25H14.25V11.75H25.5V6.75H21.4888ZM6.75 4.875C6.75 3.84125 7.59125 3 8.625 3C9.735 3 10.7675 4.90625 11.3725 6.75H8C7.5325 6.75 6.75 6.75 6.75 4.875ZM17.375 3C18.4088 3 19.25 3.84125 19.25 4.875C19.25 6.75 18.4675 6.75 18 6.75H14.9037C15.5412 4.78 16.4675 3 17.375 3Z" fill="#FFBF00"/>
</svg>
